<svg width="141" height="67" viewBox="0 0 141 67" fill="none" xmlns="http://www.w3.org/2000/svg">
<path d="M15.084 58.576C12.42 58.576 10.02 58.024 7.884 56.92C5.748 55.792 4.068 54.232 2.844 52.24C1.644 50.224 1.044 47.944 1.044 45.4C1.044 42.856 1.644 40.588 2.844 38.596C4.068 36.58 5.748 35.02 7.884 33.916C10.02 32.788 12.42 32.224 15.084 32.224C17.532 32.224 19.716 32.656 21.636 33.52C23.556 34.384 25.14 35.632 26.388 37.264L21.024 42.052C19.464 40.084 17.628 39.1 15.516 39.1C13.74 39.1 12.312 39.676 11.232 40.828C10.152 41.956 9.612 43.48 9.612 45.4C9.612 47.32 10.152 48.856 11.232 50.008C12.312 51.136 13.74 51.7 15.516 51.7C17.628 51.7 19.464 50.716 21.024 48.748L26.388 53.536C25.14 55.168 23.556 56.416 21.636 57.28C19.716 58.144 17.532 58.576 15.084 58.576ZM53.6811 32.8V58H45.1851V48.712H37.3371V58H28.8411V32.8H37.3371V41.728H45.1851V32.8H53.6811ZM74.9467 53.608H65.3707L63.6787 58H55.0387L66.0547 32.8H74.4067L85.4227 58H76.6387L74.9467 53.608ZM72.6067 47.488L70.1587 41.152L67.7107 47.488H72.6067ZM99.639 58.576C96.927 58.576 94.491 58.012 92.331 56.884C90.171 55.756 88.479 54.196 87.255 52.204C86.031 50.188 85.419 47.92 85.419 45.4C85.419 42.88 86.031 40.624 87.255 38.632C88.479 36.616 90.171 35.044 92.331 33.916C94.491 32.788 96.927 32.224 99.639 32.224C102.351 32.224 104.787 32.788 106.947 33.916C109.107 35.044 110.799 36.616 112.023 38.632C113.247 40.624 113.859 42.88 113.859 45.4C113.859 47.92 113.247 50.188 112.023 52.204C110.799 54.196 109.107 55.756 106.947 56.884C104.787 58.012 102.351 58.576 99.639 58.576ZM99.639 51.7C100.695 51.7 101.643 51.448 102.483 50.944C103.347 50.416 104.031 49.684 104.535 48.748C105.039 47.788 105.291 46.672 105.291 45.4C105.291 44.128 105.039 43.024 104.535 42.088C104.031 41.128 103.347 40.396 102.483 39.892C101.643 39.364 100.695 39.1 99.639 39.1C98.583 39.1 97.623 39.364 96.759 39.892C95.919 40.396 95.247 41.128 94.743 42.088C94.239 43.024 93.987 44.128 93.987 45.4C93.987 46.672 94.239 47.788 94.743 48.748C95.247 49.684 95.919 50.416 96.759 50.944C97.623 51.448 98.583 51.7 99.639 51.7ZM126.339 58.576C124.251 58.576 122.211 58.348 120.219 57.892C118.251 57.412 116.631 56.776 115.359 55.984L118.095 49.792C119.295 50.488 120.639 51.052 122.127 51.484C123.615 51.892 125.043 52.096 126.411 52.096C127.587 52.096 128.427 51.988 128.931 51.772C129.435 51.532 129.687 51.184 129.687 50.728C129.687 50.2 129.351 49.804 128.679 49.54C128.031 49.276 126.951 48.988 125.439 48.676C123.495 48.268 121.875 47.836 120.579 47.38C119.283 46.9 118.155 46.132 117.195 45.076C116.235 43.996 115.755 42.544 115.755 40.72C115.755 39.136 116.199 37.696 117.087 36.4C117.975 35.104 119.295 34.084 121.047 33.34C122.823 32.596 124.971 32.224 127.491 32.224C129.219 32.224 130.911 32.416 132.567 32.8C134.247 33.16 135.723 33.7 136.995 34.42L134.439 40.576C131.967 39.328 129.627 38.704 127.419 38.704C125.235 38.704 124.143 39.232 124.143 40.288C124.143 40.792 124.467 41.176 125.115 41.44C125.763 41.68 126.831 41.944 128.319 42.232C130.239 42.592 131.859 43.012 133.179 43.492C134.499 43.948 135.639 44.704 136.599 45.76C137.583 46.816 138.075 48.256 138.075 50.08C138.075 51.664 137.631 53.104 136.743 54.4C135.855 55.672 134.523 56.692 132.747 57.46C130.995 58.204 128.859 58.576 126.339 58.576Z" fill="black"/>
<path d="M7.884 54.92L7.55711 55.539L7.56259 55.5419L7.884 54.92ZM2.844 50.24L2.24244 50.5981L2.24759 50.6065L2.844 50.24ZM2.844 36.596L2.24565 36.2327L2.24439 36.2348L2.844 36.596ZM7.884 31.916L8.20542 32.5379L8.21088 32.535L7.884 31.916ZM21.636 31.52L21.3487 32.1583L21.3487 32.1583L21.636 31.52ZM26.388 35.264L26.8541 35.7862L27.3382 35.3542L26.9441 34.8388L26.388 35.264ZM21.024 40.052L20.4754 40.4868L20.9365 41.0684L21.4901 40.5742L21.024 40.052ZM11.232 38.828L11.7376 39.3121L11.7427 39.3068L11.232 38.828ZM11.232 48.008L10.7213 48.4868L10.7264 48.4921L11.232 48.008ZM21.024 46.748L21.4901 46.2258L20.9365 45.7316L20.4754 46.3132L21.024 46.748ZM26.388 51.536L26.9441 51.9612L27.3382 51.4458L26.8541 51.0138L26.388 51.536ZM21.636 55.28L21.3487 54.6417L21.3487 54.6417L21.636 55.28ZM15.084 55.876C12.5196 55.876 10.2317 55.3454 8.20541 54.2981L7.56259 55.5419C9.8083 56.7026 12.3204 57.276 15.084 57.276V55.876ZM8.21088 54.301C6.18186 53.2295 4.59655 51.7551 3.44041 49.8735L2.24759 50.6065C3.53945 52.7089 5.31414 54.3545 7.55712 55.539L8.21088 54.301ZM3.44551 49.882C2.31537 47.9833 1.744 45.829 1.744 43.4H0.344C0.344 46.059 0.972629 48.4647 2.2425 50.598L3.44551 49.882ZM1.744 43.4C1.744 40.9709 2.31538 38.8301 3.44361 36.9572L2.24439 36.2348C0.972616 38.3459 0.344 40.7411 0.344 43.4H1.744ZM3.44235 36.9593C4.5982 35.0555 6.18139 33.584 8.20541 32.5378L7.56259 31.2941C5.31461 32.456 3.5378 34.1045 2.24565 36.2327L3.44235 36.9593ZM8.21088 32.535C10.2361 31.4655 12.522 30.924 15.084 30.924V29.524C12.318 29.524 9.80392 30.1105 7.55712 31.297L8.21088 32.535ZM15.084 30.924C17.449 30.924 19.5326 31.3411 21.3487 32.1583L21.9233 30.8817C19.8994 29.9709 17.615 29.524 15.084 29.524V30.924ZM21.3487 32.1583C23.1656 32.9759 24.6563 34.1518 25.832 35.6892L26.9441 34.8388C25.6237 33.1122 23.9464 31.7921 21.9233 30.8817L21.3487 32.1583ZM25.9219 34.7418L20.5579 39.5298L21.4901 40.5742L26.8541 35.7862L25.9219 34.7418ZM21.5726 39.6172C19.9078 37.517 17.8831 36.4 15.516 36.4V37.8C17.3729 37.8 19.0202 38.651 20.4754 40.4868L21.5726 39.6172ZM15.516 36.4C13.5731 36.4 11.9508 37.0378 10.7213 38.3492L11.7427 39.3068C12.6732 38.3142 13.9069 37.8 15.516 37.8V36.4ZM10.7264 38.3439C9.49439 39.6306 8.912 41.3433 8.912 43.4H10.312C10.312 41.6167 10.8096 40.2814 11.7376 39.3121L10.7264 38.3439ZM8.912 43.4C8.912 45.4573 9.49455 47.1782 10.7213 48.4868L11.7427 47.5292C10.8095 46.5338 10.312 45.1827 10.312 43.4H8.912ZM10.7264 48.4921C11.957 49.7775 13.5778 50.4 15.516 50.4V49C13.9022 49 12.667 48.4945 11.7376 47.5239L10.7264 48.4921ZM15.516 50.4C17.8831 50.4 19.9078 49.283 21.5726 47.1828L20.4754 46.3132C19.0202 48.149 17.3729 49 15.516 49V50.4ZM20.5579 47.2702L25.9219 52.0582L26.8541 51.0138L21.4901 46.2258L20.5579 47.2702ZM25.832 51.1108C24.6563 52.6482 23.1656 53.8241 21.3487 54.6417L21.9233 55.9183C23.9464 55.0079 25.6237 53.6878 26.9441 51.9612L25.832 51.1108ZM21.3487 54.6417C19.5326 55.4589 17.449 55.876 15.084 55.876V57.276C17.615 57.276 19.8994 56.8291 21.9233 55.9183L21.3487 54.6417ZM53.6811 30.8H54.3811V30.1H53.6811V30.8ZM53.6811 56V56.7H54.3811V56H53.6811ZM45.1851 56H44.4851V56.7H45.1851V56ZM45.1851 46.712H45.8851V46.012H45.1851V46.712ZM37.3371 46.712V46.012H36.6371V46.712H37.3371ZM37.3371 56V56.7H38.0371V56H37.3371ZM28.8411 56H28.1411V56.7H28.8411V56ZM28.8411 30.8V30.1H28.1411V30.8H28.8411ZM37.3371 30.8H38.0371V30.1H37.3371V30.8ZM37.3371 39.728H36.6371V40.428H37.3371V39.728ZM45.1851 39.728V40.428H45.8851V39.728H45.1851ZM45.1851 30.8V30.1H44.4851V30.8H45.1851ZM52.9811 30.8V56H54.3811V30.8H52.9811ZM53.6811 55.3H45.1851V56.7H53.6811V55.3ZM45.8851 56V46.712H44.4851V56H45.8851ZM45.1851 46.012H37.3371V47.412H45.1851V46.012ZM36.6371 46.712V56H38.0371V46.712H36.6371ZM37.3371 55.3H28.8411V56.7H37.3371V55.3ZM29.5411 56V30.8H28.1411V56H29.5411ZM28.8411 31.5H37.3371V30.1H28.8411V31.5ZM36.6371 30.8V39.728H38.0371V30.8H36.6371ZM37.3371 40.428H45.1851V39.028H37.3371V40.428ZM45.8851 39.728V30.8H44.4851V39.728H45.8851ZM45.1851 31.5H53.6811V30.1H45.1851V31.5ZM74.9467 51.608L75.5999 51.3564L75.4271 50.908H74.9467V51.608ZM65.3707 51.608V50.908H64.8902L64.7175 51.3564L65.3707 51.608ZM63.6787 56V56.7H64.1591L64.3319 56.2516L63.6787 56ZM55.0387 56L54.3973 55.7196L53.9687 56.7H55.0387V56ZM66.0547 30.8V30.1H65.5967L65.4133 30.5196L66.0547 30.8ZM74.4067 30.8L75.0481 30.5196L74.8646 30.1H74.4067V30.8ZM85.4227 56V56.7H86.4926L86.0641 55.7196L85.4227 56ZM76.6387 56L75.9855 56.2516L76.1582 56.7H76.6387V56ZM72.6067 45.488V46.188H73.6275L73.2596 45.2357L72.6067 45.488ZM70.1587 39.152L70.8116 38.8997L70.1587 37.2097L69.5057 38.8997L70.1587 39.152ZM67.7107 45.488L67.0577 45.2357L66.6898 46.188H67.7107V45.488ZM74.9467 50.908H65.3707V52.308H74.9467V50.908ZM64.7175 51.3564L63.0255 55.7484L64.3319 56.2516L66.0239 51.8596L64.7175 51.3564ZM63.6787 55.3H55.0387V56.7H63.6787V55.3ZM55.6801 56.2804L66.6961 31.0804L65.4133 30.5196L54.3973 55.7196L55.6801 56.2804ZM66.0547 31.5H74.4067V30.1H66.0547V31.5ZM73.7653 31.0804L84.7813 56.2804L86.0641 55.7196L75.0481 30.5196L73.7653 31.0804ZM85.4227 55.3H76.6387V56.7H85.4227V55.3ZM77.2919 55.7484L75.5999 51.3564L74.2935 51.8596L75.9855 56.2516L77.2919 55.7484ZM73.2596 45.2357L70.8116 38.8997L69.5057 39.4043L71.9537 45.7403L73.2596 45.2357ZM69.5057 38.8997L67.0577 45.2357L68.3636 45.7403L70.8116 39.4043L69.5057 38.8997ZM67.7107 46.188H72.6067V44.788H67.7107V46.188ZM92.331 54.884L92.655 54.2635L92.331 54.884ZM87.255 50.204L86.6566 50.5673L86.6586 50.5705L87.255 50.204ZM87.255 36.632L87.8514 36.9985L87.8534 36.9953L87.255 36.632ZM106.947 31.916L107.271 31.2955L107.271 31.2955L106.947 31.916ZM112.023 36.632L111.425 36.9953L111.427 36.9985L112.023 36.632ZM112.023 50.204L112.619 50.5705L112.621 50.5673L112.023 50.204ZM106.947 54.884L107.271 55.5045L107.271 55.5045L106.947 54.884ZM102.483 48.944L102.843 49.5443L102.848 49.5413L102.483 48.944ZM104.535 46.748L105.151 47.0799L105.155 47.0734L104.535 46.748ZM104.535 40.088L103.915 40.4134L103.919 40.4199L104.535 40.088ZM102.483 37.892L102.11 38.4846L102.12 38.4908L102.13 38.4966L102.483 37.892ZM96.759 37.892L97.1192 38.4923L97.124 38.4893L96.759 37.892ZM94.743 40.088L95.3594 40.4199L95.3628 40.4134L94.743 40.088ZM94.743 46.748L94.1232 47.0734L94.1267 47.0799L94.743 46.748ZM96.759 48.944L96.3865 49.5366L96.3963 49.5428L96.4063 49.5486L96.759 48.944ZM99.639 55.876C97.0269 55.876 94.7041 55.3336 92.655 54.2635L92.007 55.5045C94.2779 56.6904 96.8271 57.276 99.639 57.276V55.876ZM92.655 54.2635C90.6021 53.1915 89.0064 51.7172 87.8514 49.8375L86.6586 50.5705C87.9516 52.6748 89.7399 54.3205 92.007 55.5045L92.655 54.2635ZM87.8534 49.8407C86.7004 47.9418 86.119 45.801 86.119 43.4H84.719C84.719 46.039 85.3616 48.4342 86.6566 50.5673L87.8534 49.8407ZM86.119 43.4C86.119 40.9989 86.7004 38.8716 87.8514 36.9985L86.6586 36.2655C85.3616 38.3764 84.719 40.7611 84.719 43.4H86.119ZM87.8534 36.9953C89.0088 35.0922 90.6043 33.6074 92.655 32.5365L92.007 31.2955C89.7377 32.4806 87.9492 34.1398 86.6566 36.2687L87.8534 36.9953ZM92.655 32.5365C94.7041 31.4664 97.0269 30.924 99.639 30.924V29.524C96.8271 29.524 94.2779 30.1096 92.007 31.2955L92.655 32.5365ZM99.639 30.924C102.251 30.924 104.574 31.4664 106.623 32.5365L107.271 31.2955C105 30.1096 102.451 29.524 99.639 29.524V30.924ZM106.623 32.5365C108.674 33.6074 110.269 35.0922 111.425 36.9953L112.621 36.2687C111.329 34.1398 109.54 32.4806 107.271 31.2955L106.623 32.5365ZM111.427 36.9985C112.578 38.8716 113.159 40.9989 113.159 43.4H114.559C114.559 40.7611 113.916 38.3764 112.619 36.2655L111.427 36.9985ZM113.159 43.4C113.159 45.801 112.578 47.9418 111.425 49.8407L112.621 50.5673C113.916 48.4342 114.559 46.039 114.559 43.4H113.159ZM111.427 49.8375C110.272 51.7172 108.676 53.1915 106.623 54.2635L107.271 55.5045C109.538 54.3205 111.326 52.6748 112.619 50.5705L111.427 49.8375ZM106.623 54.2635C104.574 55.3336 102.251 55.876 99.639 55.876V57.276C102.451 57.276 105 56.6904 107.271 55.5045L106.623 54.2635ZM99.639 50.4C100.812 50.4 101.886 50.1186 102.843 49.5442L102.123 48.3438C101.4 48.7774 100.578 49 99.639 49V50.4ZM102.848 49.5413C103.823 48.9454 104.592 48.1194 105.151 47.0799L103.919 46.4161C103.47 47.2486 102.871 47.8866 102.118 48.3467L102.848 49.5413ZM105.155 47.0734C105.72 45.997 105.991 44.7657 105.991 43.4H104.591C104.591 44.5783 104.358 45.579 103.915 46.4226L105.155 47.0734ZM105.991 43.4C105.991 42.0348 105.72 40.8124 105.151 39.7561L103.919 40.4199C104.358 41.2356 104.591 42.2212 104.591 43.4H105.991ZM105.155 39.7626C104.595 38.6965 103.823 37.8631 102.836 37.2874L102.13 38.4966C102.871 38.9289 103.467 39.5595 103.915 40.4134L105.155 39.7626ZM102.856 37.2994C101.897 36.6966 100.818 36.4 99.639 36.4V37.8C100.572 37.8 101.389 38.0314 102.11 38.4846L102.856 37.2994ZM99.639 36.4C98.46 36.4 97.3727 36.6966 96.394 37.2947L97.124 38.4893C97.8733 38.0314 98.706 37.8 99.639 37.8V36.4ZM96.3989 37.2918C95.4372 37.8687 94.6803 38.7014 94.1232 39.7626L95.3628 40.4134C95.8137 39.5546 96.4008 38.9233 97.1191 38.4922L96.3989 37.2918ZM94.1267 39.7561C93.5579 40.8124 93.287 42.0348 93.287 43.4H94.687C94.687 42.2212 94.9201 41.2356 95.3593 40.4199L94.1267 39.7561ZM93.287 43.4C93.287 44.7657 93.5581 45.997 94.1232 47.0734L95.3628 46.4226C94.9199 45.579 94.687 44.5783 94.687 43.4H93.287ZM94.1267 47.0799C94.6838 48.1145 95.4367 48.9397 96.3865 49.5366L97.1315 48.3514C96.4013 47.8923 95.8102 47.2535 95.3593 46.4161L94.1267 47.0799ZM96.4063 49.5486C97.3834 50.1186 98.4662 50.4 99.639 50.4V49C98.6998 49 97.8626 48.7774 97.1117 48.3394L96.4063 49.5486ZM120.219 55.892L120.053 56.5721L120.062 56.5743L120.219 55.892ZM115.359 53.984L114.718 53.7011L114.473 54.257L114.989 54.5782L115.359 53.984ZM118.095 47.792L118.446 47.1865L117.77 46.7945L117.454 47.5091L118.095 47.792ZM122.127 49.484L121.931 50.1563L121.942 50.1591L122.127 49.484ZM128.931 49.772L129.206 50.4154L129.219 50.41L129.232 50.404L128.931 49.772ZM128.679 47.54L128.414 48.1883L128.423 48.1915L128.679 47.54ZM125.439 46.676L125.295 47.3611L125.297 47.3616L125.439 46.676ZM120.579 45.38L120.335 46.0365L120.346 46.0403L120.579 45.38ZM117.195 43.076L116.671 43.5411L116.677 43.5469L117.195 43.076ZM117.087 34.4L117.664 34.7957L117.664 34.7957L117.087 34.4ZM121.047 31.34L120.776 30.6944L120.773 30.6957L121.047 31.34ZM132.567 30.8L132.408 31.482L132.42 31.4845L132.567 30.8ZM136.995 32.42L137.641 32.6884L137.879 32.1161L137.339 31.8108L136.995 32.42ZM134.439 38.576L134.123 39.2009L134.796 39.5406L135.085 38.8444L134.439 38.576ZM125.115 39.44L124.851 40.0883L124.861 40.0925L124.872 40.0964L125.115 39.44ZM128.319 40.232L128.186 40.9193L128.19 40.92L128.319 40.232ZM133.179 41.492L132.939 42.1499L132.95 42.1536L133.179 41.492ZM136.599 43.76L136.081 44.2309L136.087 44.2372L136.599 43.76ZM136.743 52.4L137.317 52.8007L137.32 52.7957L136.743 52.4ZM132.747 55.46L133.02 56.1043L133.024 56.1025L132.747 55.46ZM126.339 55.876C124.302 55.876 122.314 55.6537 120.375 55.2097L120.062 56.5743C122.107 57.0423 124.199 57.276 126.339 57.276V55.876ZM120.384 55.2119C118.465 54.7438 116.92 54.1314 115.729 53.3898L114.989 54.5782C116.341 55.4206 118.036 56.0802 120.053 56.5721L120.384 55.2119ZM115.999 54.2669L118.735 48.0749L117.454 47.5091L114.718 53.7011L115.999 54.2669ZM117.743 48.3975C118.998 49.1251 120.395 49.7102 121.931 50.1562L122.322 48.8118C120.882 48.3938 119.591 47.8509 118.446 47.1865L117.743 48.3975ZM121.942 50.1591C123.482 50.5815 124.973 50.796 126.411 50.796V49.396C125.113 49.396 123.747 49.2025 122.312 48.8089L121.942 50.1591ZM126.411 50.796C127.598 50.796 128.562 50.6916 129.206 50.4154L128.655 49.1286C128.291 49.2844 127.576 49.396 126.411 49.396V50.796ZM129.232 50.404C129.559 50.2483 129.852 50.0347 130.065 49.7416C130.283 49.4406 130.387 49.0939 130.387 48.728H128.987C128.987 48.8181 128.965 48.8734 128.931 48.9204C128.891 48.9753 128.807 49.0557 128.63 49.14L129.232 50.404ZM130.387 48.728C130.387 48.3011 130.246 47.9089 129.968 47.5821C129.702 47.2683 129.338 47.0471 128.935 46.8885L128.423 48.1915C128.691 48.2969 128.831 48.4057 128.901 48.4879C128.96 48.5571 128.987 48.6269 128.987 48.728H130.387ZM128.943 46.8917C128.231 46.6017 127.096 46.3033 125.58 45.9904L125.297 47.3616C126.805 47.6727 127.831 47.9503 128.415 48.1883L128.943 46.8917ZM125.582 45.9909C123.656 45.5867 122.068 45.1621 120.811 44.7197L120.346 46.0403C121.681 46.5099 123.333 46.9493 125.295 47.3611L125.582 45.9909ZM120.822 44.7236C119.634 44.2838 118.6 43.581 117.713 42.6051L116.677 43.5469C117.71 44.683 118.931 45.5162 120.336 46.0364L120.822 44.7236ZM117.718 42.6109C116.899 41.69 116.455 40.4191 116.455 38.72H115.055C115.055 40.6689 115.57 42.302 116.671 43.5411L117.718 42.6109ZM116.455 38.72C116.455 37.276 116.857 35.9741 117.664 34.7957L116.509 34.0043C115.541 35.4179 115.055 36.996 115.055 38.72H116.455ZM117.664 34.7957C118.462 33.6312 119.665 32.6872 121.32 31.9843L120.773 30.6957C118.924 31.4808 117.487 32.5768 116.509 34.0043L117.664 34.7957ZM121.317 31.9856C122.985 31.2867 125.036 30.924 127.491 30.924V29.524C124.905 29.524 122.66 29.9053 120.776 30.6944L121.317 31.9856ZM127.491 30.924C129.166 30.924 130.805 31.1101 132.409 31.4819L132.725 30.1181C131.016 29.7219 129.271 29.524 127.491 29.524V30.924ZM132.42 31.4845C134.042 31.8321 135.449 32.3497 136.65 33.0292L137.339 31.8108C135.996 31.0503 134.451 30.4879 132.713 30.1155L132.42 31.4845ZM136.348 32.1516L133.792 38.3076L135.085 38.8444L137.641 32.6884L136.348 32.1516ZM134.754 37.9511C132.209 36.666 129.761 36.004 127.419 36.004V37.404C129.493 37.404 131.725 37.99 134.123 39.2009L134.754 37.9511ZM127.419 36.004C126.293 36.004 125.346 36.1365 124.657 36.4698C124.303 36.641 123.992 36.877 123.771 37.1977C123.546 37.5239 123.443 37.8966 123.443 38.288H124.843C124.843 38.1514 124.876 38.0621 124.924 37.9923C124.976 37.917 125.074 37.823 125.266 37.7302C125.669 37.5355 126.361 37.404 127.419 37.404V36.004ZM123.443 38.288C123.443 38.7047 123.582 39.0867 123.851 39.4054C124.109 39.7112 124.461 39.9294 124.851 40.0883L125.379 38.7917C125.121 38.6866 124.987 38.5808 124.921 38.5026C124.866 38.4373 124.843 38.3753 124.843 38.288H123.443ZM124.872 40.0964C125.577 40.3578 126.694 40.6305 128.186 40.9192L128.452 39.5448C126.968 39.2575 125.948 39.0022 125.358 38.7836L124.872 40.0964ZM128.19 40.92C130.085 41.2755 131.666 41.6868 132.939 42.1499L133.418 40.8341C132.051 40.3372 130.392 39.9085 128.448 39.544L128.19 40.92ZM132.95 42.1536C134.157 42.5704 135.198 43.2597 136.081 44.2309L137.117 43.2891C136.079 42.1483 134.841 41.3256 133.407 40.8304L132.95 42.1536ZM136.087 44.2372C136.92 45.132 137.375 46.3845 137.375 48.08H138.775C138.775 46.1275 138.245 44.5 137.111 43.2828L136.087 44.2372ZM137.375 48.08C137.375 49.524 136.973 50.8259 136.165 52.0043L137.32 52.7957C138.289 51.3821 138.775 49.804 138.775 48.08H137.375ZM136.169 51.9993C135.371 53.1413 134.155 54.0884 132.469 54.8175L133.024 56.1025C134.89 55.2956 136.338 54.2027 137.317 52.8007L136.169 51.9993ZM132.473 54.8157C130.831 55.5131 128.793 55.876 126.339 55.876V57.276C128.924 57.276 131.159 56.8949 133.02 56.1043L132.473 54.8157Z" fill="#EA707D"/>
<path d="M41.112 16.4L38.856 18.752V23H34.992V6.2H38.856V14.048L46.296 6.2H50.616L43.656 13.688L51.024 23H46.488L41.112 16.4ZM64.2716 19.4H56.4716L54.9836 23H50.9996L58.4876 6.2H62.3276L69.8396 23H65.7596L64.2716 19.4ZM63.0476 16.448L60.3836 10.016L57.7196 16.448H63.0476ZM80.6843 23.288C78.9403 23.288 77.3643 22.912 75.9563 22.16C74.5643 21.408 73.4683 20.376 72.6683 19.064C71.8843 17.736 71.4923 16.248 71.4923 14.6C71.4923 12.952 71.8843 11.472 72.6683 10.16C73.4683 8.832 74.5643 7.792 75.9563 7.04C77.3643 6.288 78.9403 5.912 80.6843 5.912C82.4283 5.912 83.9963 6.288 85.3883 7.04C86.7803 7.792 87.8763 8.832 88.6763 10.16C89.4763 11.472 89.8763 12.952 89.8763 14.6C89.8763 16.248 89.4763 17.736 88.6763 19.064C87.8763 20.376 86.7803 21.408 85.3883 22.16C83.9963 22.912 82.4283 23.288 80.6843 23.288ZM80.6843 19.976C81.6763 19.976 82.5723 19.752 83.3723 19.304C84.1723 18.84 84.7963 18.2 85.2443 17.384C85.7083 16.568 85.9403 15.64 85.9403 14.6C85.9403 13.56 85.7083 12.632 85.2443 11.816C84.7963 11 84.1723 10.368 83.3723 9.92C82.5723 9.456 81.6763 9.224 80.6843 9.224C79.6923 9.224 78.7963 9.456 77.9963 9.92C77.1963 10.368 76.5643 11 76.1003 11.816C75.6523 12.632 75.4283 13.56 75.4283 14.6C75.4283 15.64 75.6523 16.568 76.1003 17.384C76.5643 18.2 77.1963 18.84 77.9963 19.304C78.7963 19.752 79.6923 19.976 80.6843 19.976ZM99.5182 23.288C98.1902 23.288 96.9022 23.112 95.6542 22.76C94.4222 22.392 93.4302 21.92 92.6782 21.344L93.9982 18.416C94.7182 18.944 95.5742 19.368 96.5662 19.688C97.5582 20.008 98.5502 20.168 99.5422 20.168C100.646 20.168 101.462 20.008 101.99 19.688C102.518 19.352 102.782 18.912 102.782 18.368C102.782 17.968 102.622 17.64 102.302 17.384C101.998 17.112 101.598 16.896 101.102 16.736C100.622 16.576 99.9662 16.4 99.1342 16.208C97.8542 15.904 96.8062 15.6 95.9902 15.296C95.1742 14.992 94.4702 14.504 93.8782 13.832C93.3022 13.16 93.0142 12.264 93.0142 11.144C93.0142 10.168 93.2782 9.288 93.8062 8.504C94.3342 7.704 95.1262 7.072 96.1822 6.608C97.2542 6.144 98.5582 5.912 100.094 5.912C101.166 5.912 102.214 6.04 103.238 6.296C104.262 6.552 105.158 6.92 105.926 7.4L104.726 10.352C103.174 9.472 101.622 9.032 100.07 9.032C98.9822 9.032 98.1742 9.208 97.6462 9.56C97.1342 9.912 96.8782 10.376 96.8782 10.952C96.8782 11.528 97.1742 11.96 97.7662 12.248C98.3742 12.52 99.2942 12.792 100.526 13.064C101.806 13.368 102.854 13.672 103.67 13.976C104.486 14.28 105.182 14.76 105.758 15.416C106.35 16.072 106.646 16.96 106.646 18.08C106.646 19.04 106.374 19.92 105.83 20.72C105.302 21.504 104.502 22.128 103.43 22.592C102.358 23.056 101.054 23.288 99.5182 23.288Z" fill="black"/>
<path d="M26.5749 13.1114C26.3285 12.778 26.0286 12.4891 25.7501 12.2002C25.0324 11.5335 24.2182 11.0558 23.5326 10.3557C21.9365 8.73347 21.583 6.05561 22.6007 4C21.583 4.25556 20.6939 4.83336 19.9333 5.46671C17.1588 7.77789 16.0661 11.8558 17.373 15.3559C17.4159 15.467 17.4587 15.5781 17.4587 15.7226C17.4587 15.967 17.2981 16.1892 17.0838 16.2781C16.8374 16.3892 16.5803 16.3226 16.3768 16.1448C16.3156 16.0923 16.2647 16.0282 16.2268 15.9559C15.0163 14.367 14.8235 12.0891 15.6376 10.2668C13.8487 11.778 12.8739 14.3336 13.0131 16.7448C13.0774 17.3004 13.1417 17.856 13.3238 18.4115C13.4738 19.0782 13.763 19.7449 14.0844 20.3338C15.2413 22.2561 17.2445 23.6339 19.3977 23.9117C21.6901 24.2117 24.1432 23.7783 25.9001 22.1338C27.8604 20.2894 28.546 17.3337 27.539 14.8003L27.3998 14.5114C27.1748 14.0003 26.5749 13.1114 26.5749 13.1114ZM23.1898 20.1116C22.8899 20.3782 22.3971 20.6671 22.0115 20.7783C20.8117 21.2227 19.6119 20.6005 18.9049 19.8671C20.1797 19.556 20.9402 18.5782 21.1652 17.5893C21.3473 16.7004 21.0045 15.967 20.8653 15.1114C20.7367 14.2892 20.7581 13.5892 21.0474 12.8225C21.2509 13.2447 21.4652 13.6669 21.7222 14.0003C22.5471 15.1114 23.8433 15.6003 24.1218 17.1115C24.1647 17.267 24.1861 17.4226 24.1861 17.5893C24.2182 18.5004 23.8326 19.5004 23.1898 20.1116Z" fill="#EA707D"/>
<path d="M126.48 13.1114C126.217 12.778 125.897 12.4891 125.6 12.2002C124.835 11.5335 123.966 11.0558 123.235 10.3557C121.532 8.73347 121.155 6.05561 122.241 4C121.155 4.25556 120.207 4.83336 119.396 5.46671C116.436 7.77789 115.271 11.8558 116.665 15.3559C116.71 15.467 116.756 15.5781 116.756 15.7226C116.756 15.967 116.585 16.1892 116.356 16.2781C116.093 16.3892 115.819 16.3226 115.602 16.1448C115.537 16.0923 115.482 16.0282 115.442 15.9559C114.151 14.367 113.945 12.0891 114.813 10.2668C112.905 11.778 111.865 14.3336 112.014 16.7448C112.083 17.3004 112.151 17.856 112.345 18.4115C112.505 19.0782 112.814 19.7449 113.157 20.3338C114.391 22.2561 116.527 23.6339 118.824 23.9117C121.269 24.2117 123.886 23.7783 125.76 22.1338C127.851 20.2894 128.582 17.3337 127.508 14.8003L127.36 14.5114C127.12 14.0003 126.48 13.1114 126.48 13.1114ZM122.869 20.1116C122.549 20.3782 122.024 20.6671 121.612 20.7783C120.332 21.2227 119.053 20.6005 118.299 19.8671C119.658 19.556 120.47 18.5782 120.71 17.5893C120.904 16.7004 120.538 15.967 120.39 15.1114C120.252 14.2892 120.275 13.5892 120.584 12.8225C120.801 13.2447 121.029 13.6669 121.304 14.0003C122.184 15.1114 123.566 15.6003 123.863 17.1115C123.909 17.267 123.932 17.4226 123.932 17.5893C123.966 18.5004 123.555 19.5004 122.869 20.1116Z" fill="#EA707D"/>
</svg>
