<svg width="411" height="823" viewBox="0 0 411 823" fill="none" xmlns="http://www.w3.org/2000/svg">
<g clip-path="url(#clip0_42_2)">
<rect width="411" height="823" fill="#EA707D"/>
<path d="M207.489 144.06C203.251 138.643 198.092 133.948 193.301 129.254C180.957 118.42 166.953 110.656 155.161 99.2807C127.708 72.9189 121.627 29.4037 139.131 -4C121.627 0.152896 106.334 9.54206 93.2526 19.834C45.5313 57.3906 26.7376 123.656 49.2164 180.533C49.9534 182.339 50.6904 184.144 50.6904 186.492C50.6904 190.464 47.9266 194.075 44.2416 195.52C40.0038 197.325 35.5817 196.242 32.081 193.353C31.029 192.501 30.1533 191.459 29.5014 190.283C8.68095 164.463 5.36441 127.448 19.3676 97.8362C-11.4025 122.392 -28.1694 163.921 -25.7742 203.103C-24.6687 212.131 -23.5631 221.159 -20.4309 230.187C-17.8513 241.021 -12.8765 251.855 -7.34897 261.424C12.5502 292.661 47.0054 315.051 84.04 319.565C123.47 324.44 165.664 317.398 195.881 290.675C229.599 260.702 241.391 212.673 224.072 171.505L221.676 166.81C217.807 158.505 207.489 144.06 207.489 144.06ZM149.265 257.813C144.106 262.146 135.631 266.841 128.997 268.647C108.361 275.869 87.725 265.758 75.5644 253.841C97.4904 248.785 110.572 232.896 114.442 216.826C117.574 202.381 111.678 190.464 109.283 176.561C107.072 163.199 107.44 151.824 112.415 139.365C115.916 146.226 119.601 153.088 124.023 158.505C138.21 176.561 160.505 184.505 165.295 209.062C166.032 211.589 166.401 214.117 166.401 216.826C166.953 231.632 160.32 247.882 149.265 257.813Z" fill="#E46875"/>
<path d="M480.489 377.06C476.251 371.643 471.092 366.948 466.301 362.254C453.957 351.42 439.953 343.656 428.161 332.281C400.708 305.919 394.627 262.404 412.131 229C394.627 233.153 379.334 242.542 366.253 252.834C318.531 290.391 299.738 356.656 322.216 413.533C322.953 415.339 323.69 417.144 323.69 419.492C323.69 423.464 320.927 427.075 317.242 428.52C313.004 430.325 308.582 429.242 305.081 426.353C304.029 425.501 303.153 424.459 302.501 423.283C281.681 397.463 278.364 360.448 292.368 330.836C261.597 355.392 244.831 396.921 247.226 436.103C248.331 445.131 249.437 454.159 252.569 463.187C255.149 474.021 260.123 484.855 265.651 494.424C285.55 525.661 320.005 548.051 357.04 552.565C396.47 557.44 438.664 550.398 468.881 523.675C502.599 493.702 514.391 445.673 497.072 404.505L494.676 399.81C490.807 391.505 480.489 377.06 480.489 377.06ZM422.265 490.813C417.106 495.146 408.631 499.841 401.997 501.647C381.361 508.869 360.725 498.758 348.564 486.841C370.49 481.785 383.572 465.896 387.442 449.826C390.574 435.381 384.678 423.464 382.283 409.561C380.072 396.199 380.44 384.824 385.415 372.365C388.916 379.226 392.601 386.088 397.023 391.505C411.21 409.561 433.505 417.505 438.295 442.062C439.032 444.589 439.401 447.117 439.401 449.826C439.953 464.632 433.32 480.882 422.265 490.813Z" fill="#E46875"/>
<path d="M161.489 548.06C157.251 542.643 152.092 537.948 147.301 533.254C134.957 522.42 120.953 514.656 109.161 503.281C81.7077 476.919 75.6274 433.404 93.1313 400C75.6274 404.153 60.3345 413.542 47.2526 423.834C-0.468652 461.391 -19.2624 527.656 3.21638 584.533C3.95339 586.339 4.69039 588.144 4.69039 590.492C4.69039 594.464 1.92662 598.075 -1.75841 599.52C-5.99621 601.325 -10.4183 600.242 -13.919 597.353C-14.971 596.501 -15.8467 595.459 -16.4986 594.283C-37.319 568.463 -40.6356 531.448 -26.6324 501.836C-57.4025 526.392 -74.1694 567.921 -71.7742 607.103C-70.6687 616.131 -69.5631 625.159 -66.4309 634.187C-63.8513 645.021 -58.8765 655.855 -53.349 665.424C-33.4498 696.661 1.00536 719.051 38.04 723.565C77.4699 728.44 119.664 721.398 149.881 694.675C183.599 664.702 195.391 616.673 178.072 575.505L175.676 570.81C171.807 562.505 161.489 548.06 161.489 548.06ZM103.265 661.813C98.1062 666.146 89.6306 670.841 82.9975 672.647C62.3613 679.869 41.725 669.758 29.5644 657.841C51.4904 652.785 64.5723 636.896 68.4416 620.826C71.5739 606.381 65.6778 594.464 63.2825 580.561C61.0715 567.199 61.44 555.824 66.4148 543.365C69.9156 550.226 73.6006 557.088 78.0227 562.505C92.2101 580.561 114.505 588.505 119.295 613.062C120.032 615.589 120.401 618.117 120.401 620.826C120.953 635.632 114.32 651.882 103.265 661.813Z" fill="#E46875"/>
<path d="M433.489 739.06C429.251 733.643 424.092 728.948 419.301 724.254C406.957 713.42 392.953 705.656 381.161 694.281C353.708 667.919 347.627 624.404 365.131 591C347.627 595.153 332.334 604.542 319.253 614.834C271.531 652.391 252.738 718.656 275.216 775.533C275.953 777.339 276.69 779.144 276.69 781.492C276.69 785.464 273.927 789.075 270.242 790.52C266.004 792.325 261.582 791.242 258.081 788.353C257.029 787.501 256.153 786.459 255.501 785.283C234.681 759.463 231.364 722.448 245.368 692.836C214.597 717.392 197.831 758.921 200.226 798.103C201.331 807.131 202.437 816.159 205.569 825.187C208.149 836.021 213.123 846.855 218.651 856.424C238.55 887.661 273.005 910.051 310.04 914.565C349.47 919.44 391.664 912.398 421.881 885.675C455.599 855.702 467.391 807.673 450.072 766.505L447.676 761.81C443.807 753.505 433.489 739.06 433.489 739.06ZM375.265 852.813C370.106 857.146 361.631 861.841 354.997 863.647C334.361 870.869 313.725 860.758 301.564 848.841C323.49 843.785 336.572 827.896 340.442 811.826C343.574 797.381 337.678 785.464 335.283 771.561C333.072 758.199 333.44 746.824 338.415 734.365C341.916 741.226 345.601 748.088 350.023 753.505C364.21 771.561 386.505 779.505 391.295 804.062C392.032 806.589 392.401 809.117 392.401 811.826C392.953 826.632 386.32 842.882 375.265 852.813Z" fill="#E46875"/>
<path d="M251.359 315.235C249.52 312.885 247.28 310.848 245.201 308.812C239.842 304.112 233.763 300.743 228.644 295.808C216.726 284.371 214.086 265.492 221.685 251C214.086 252.802 207.448 256.875 201.769 261.34C181.052 277.634 172.894 306.383 182.652 331.059C182.972 331.842 183.292 332.626 183.292 333.644C183.292 335.367 182.092 336.934 180.492 337.561C178.653 338.344 176.733 337.874 175.213 336.621C174.757 336.251 174.377 335.799 174.094 335.289C165.055 324.087 163.616 308.028 169.694 295.181C156.337 305.835 149.058 323.852 150.098 340.851C150.578 344.768 151.058 348.684 152.418 352.601C153.537 357.301 155.697 362.002 158.097 366.153C166.735 379.705 181.692 389.419 197.769 391.377C214.886 393.492 233.203 390.437 246.32 378.844C260.958 365.84 266.077 345.003 258.558 327.142L257.518 325.105C255.839 321.502 251.359 315.235 251.359 315.235ZM226.084 364.587C223.845 366.467 220.165 368.503 217.286 369.287C208.327 372.42 199.369 368.033 194.09 362.863C203.608 360.67 209.287 353.776 210.967 346.804C212.327 340.538 209.767 335.367 208.727 329.336C207.767 323.539 207.927 318.604 210.087 313.198C211.607 316.175 213.206 319.152 215.126 321.502C221.285 329.336 230.963 332.782 233.043 343.436C233.363 344.533 233.523 345.629 233.523 346.804C233.763 353.228 230.883 360.278 226.084 364.587Z" fill="white"/>
<path d="M162.168 437.1L158.784 440.628V447H152.988V421.8H158.784V433.572L169.944 421.8H176.424L165.984 433.032L177.036 447H170.232L162.168 437.1ZM196.907 441.6H185.207L182.975 447H176.999L188.231 421.8H193.991L205.259 447H199.139L196.907 441.6ZM195.071 437.172L191.075 427.524L187.079 437.172H195.071ZM221.526 447.432C218.91 447.432 216.546 446.868 214.434 445.74C212.346 444.612 210.702 443.064 209.502 441.096C208.326 439.104 207.738 436.872 207.738 434.4C207.738 431.928 208.326 429.708 209.502 427.74C210.702 425.748 212.346 424.188 214.434 423.06C216.546 421.932 218.91 421.368 221.526 421.368C224.142 421.368 226.494 421.932 228.582 423.06C230.67 424.188 232.314 425.748 233.514 427.74C234.714 429.708 235.314 431.928 235.314 434.4C235.314 436.872 234.714 439.104 233.514 441.096C232.314 443.064 230.67 444.612 228.582 445.74C226.494 446.868 224.142 447.432 221.526 447.432ZM221.526 442.464C223.014 442.464 224.358 442.128 225.558 441.456C226.758 440.76 227.694 439.8 228.366 438.576C229.062 437.352 229.41 435.96 229.41 434.4C229.41 432.84 229.062 431.448 228.366 430.224C227.694 429 226.758 428.052 225.558 427.38C224.358 426.684 223.014 426.336 221.526 426.336C220.038 426.336 218.694 426.684 217.494 427.38C216.294 428.052 215.346 429 214.65 430.224C213.978 431.448 213.642 432.84 213.642 434.4C213.642 435.96 213.978 437.352 214.65 438.576C215.346 439.8 216.294 440.76 217.494 441.456C218.694 442.128 220.038 442.464 221.526 442.464ZM249.777 447.432C247.785 447.432 245.853 447.168 243.981 446.64C242.133 446.088 240.645 445.38 239.517 444.516L241.497 440.124C242.577 440.916 243.861 441.552 245.349 442.032C246.837 442.512 248.325 442.752 249.813 442.752C251.469 442.752 252.693 442.512 253.485 442.032C254.277 441.528 254.673 440.868 254.673 440.052C254.673 439.452 254.433 438.96 253.953 438.576C253.497 438.168 252.897 437.844 252.153 437.604C251.433 437.364 250.449 437.1 249.201 436.812C247.281 436.356 245.709 435.9 244.485 435.444C243.261 434.988 242.205 434.256 241.317 433.248C240.453 432.24 240.021 430.896 240.021 429.216C240.021 427.752 240.417 426.432 241.209 425.256C242.001 424.056 243.189 423.108 244.773 422.412C246.381 421.716 248.337 421.368 250.641 421.368C252.249 421.368 253.821 421.56 255.357 421.944C256.893 422.328 258.237 422.88 259.389 423.6L257.589 428.028C255.261 426.708 252.933 426.048 250.605 426.048C248.973 426.048 247.761 426.312 246.969 426.84C246.201 427.368 245.817 428.064 245.817 428.928C245.817 429.792 246.261 430.44 247.149 430.872C248.061 431.28 249.441 431.688 251.289 432.096C253.209 432.552 254.781 433.008 256.005 433.464C257.229 433.92 258.273 434.64 259.137 435.624C260.025 436.608 260.469 437.94 260.469 439.62C260.469 441.06 260.061 442.38 259.245 443.58C258.453 444.756 257.253 445.692 255.645 446.388C254.037 447.084 252.081 447.432 249.777 447.432Z" fill="white"/>
<path d="M108.816 503.024C104.08 503.024 99.8133 502.043 96.016 500.08C92.2187 498.075 89.232 495.301 87.056 491.76C84.9227 488.176 83.856 484.123 83.856 479.6C83.856 475.077 84.9227 471.045 87.056 467.504C89.232 463.92 92.2187 461.147 96.016 459.184C99.8133 457.179 104.08 456.176 108.816 456.176C113.168 456.176 117.051 456.944 120.464 458.48C123.877 460.016 126.693 462.235 128.912 465.136L119.376 473.648C116.603 470.149 113.339 468.4 109.584 468.4C106.427 468.4 103.888 469.424 101.968 471.472C100.048 473.477 99.088 476.187 99.088 479.6C99.088 483.013 100.048 485.744 101.968 487.792C103.888 489.797 106.427 490.8 109.584 490.8C113.339 490.8 116.603 489.051 119.376 485.552L128.912 494.064C126.693 496.965 123.877 499.184 120.464 500.72C117.051 502.256 113.168 503.024 108.816 503.024ZM177.433 457.2V502H162.329V485.488H148.377V502H133.273V457.2H148.377V473.072H162.329V457.2H177.433ZM215.239 494.192H198.215L195.207 502H179.846L199.431 457.2H214.279L233.863 502H218.247L215.239 494.192ZM211.079 483.312L206.727 472.048L202.375 483.312H211.079ZM259.136 503.024C254.315 503.024 249.984 502.021 246.144 500.016C242.304 498.011 239.296 495.237 237.12 491.696C234.944 488.112 233.856 484.08 233.856 479.6C233.856 475.12 234.944 471.109 237.12 467.568C239.296 463.984 242.304 461.189 246.144 459.184C249.984 457.179 254.315 456.176 259.136 456.176C263.957 456.176 268.288 457.179 272.128 459.184C275.968 461.189 278.976 463.984 281.152 467.568C283.328 471.109 284.416 475.12 284.416 479.6C284.416 484.08 283.328 488.112 281.152 491.696C278.976 495.237 275.968 498.011 272.128 500.016C268.288 502.021 263.957 503.024 259.136 503.024ZM259.136 490.8C261.013 490.8 262.699 490.352 264.192 489.456C265.728 488.517 266.944 487.216 267.84 485.552C268.736 483.845 269.184 481.861 269.184 479.6C269.184 477.339 268.736 475.376 267.84 473.712C266.944 472.005 265.728 470.704 264.192 469.808C262.699 468.869 261.013 468.4 259.136 468.4C257.259 468.4 255.552 468.869 254.016 469.808C252.523 470.704 251.328 472.005 250.432 473.712C249.536 475.376 249.088 477.339 249.088 479.6C249.088 481.861 249.536 483.845 250.432 485.552C251.328 487.216 252.523 488.517 254.016 489.456C255.552 490.352 257.259 490.8 259.136 490.8ZM306.602 503.024C302.89 503.024 299.263 502.619 295.722 501.808C292.223 500.955 289.343 499.824 287.082 498.416L291.946 487.408C294.079 488.645 296.469 489.648 299.114 490.416C301.759 491.141 304.298 491.504 306.73 491.504C308.821 491.504 310.314 491.312 311.21 490.928C312.106 490.501 312.554 489.883 312.554 489.072C312.554 488.133 311.957 487.429 310.762 486.96C309.61 486.491 307.69 485.979 305.002 485.424C301.546 484.699 298.666 483.931 296.362 483.12C294.058 482.267 292.053 480.901 290.346 479.024C288.639 477.104 287.786 474.523 287.786 471.28C287.786 468.464 288.575 465.904 290.154 463.6C291.733 461.296 294.079 459.483 297.194 458.16C300.351 456.837 304.17 456.176 308.65 456.176C311.722 456.176 314.73 456.517 317.674 457.2C320.661 457.84 323.285 458.8 325.546 460.08L321.002 471.024C316.607 468.805 312.447 467.696 308.522 467.696C304.639 467.696 302.698 468.635 302.698 470.512C302.698 471.408 303.274 472.091 304.426 472.56C305.578 472.987 307.477 473.456 310.122 473.968C313.535 474.608 316.415 475.355 318.762 476.208C321.109 477.019 323.135 478.363 324.842 480.24C326.591 482.117 327.466 484.677 327.466 487.92C327.466 490.736 326.677 493.296 325.098 495.6C323.519 497.861 321.151 499.675 317.994 501.04C314.879 502.363 311.082 503.024 306.602 503.024Z" fill="white"/>
<path d="M495.489 -43.9402C491.251 -49.357 486.092 -54.0516 481.301 -58.7462C468.957 -69.5798 454.953 -77.3439 443.161 -88.7193C415.708 -115.081 409.627 -158.596 427.131 -192C409.627 -187.847 394.334 -178.458 381.253 -168.166C333.531 -130.609 314.738 -64.3436 337.216 -7.46696C337.953 -5.66135 338.69 -3.85574 338.69 -1.50845C338.69 2.46388 335.927 6.07509 332.242 7.51958C328.004 9.32519 323.582 8.24183 320.081 5.35285C319.029 4.50051 318.153 3.45855 317.501 2.28332C296.681 -23.5369 293.364 -60.5518 307.368 -90.1638C276.597 -65.6075 259.831 -24.0785 262.226 15.1031C263.331 24.1312 264.437 33.1592 267.569 42.1872C270.149 53.0209 275.123 63.8545 280.651 73.4242C300.55 104.661 335.005 127.051 372.04 131.565C411.47 136.44 453.664 129.398 483.881 102.675C517.599 72.702 529.391 24.6728 512.072 -16.495L509.676 -21.1896C505.807 -29.4954 495.489 -43.9402 495.489 -43.9402ZM437.265 69.813C432.106 74.1465 423.631 78.8411 416.997 80.6467C396.361 87.8691 375.725 77.7577 363.564 65.8407C385.49 60.785 398.572 44.8956 402.442 28.8257C405.574 14.3809 399.678 2.46388 397.283 -11.4393C395.072 -24.8008 395.44 -36.1761 400.415 -48.6348C403.916 -41.7735 407.601 -34.9122 412.023 -29.4954C426.21 -11.4393 448.505 -3.49462 453.295 21.0616C454.032 23.5895 454.401 26.1173 454.401 28.8257C454.953 43.6317 448.32 59.8822 437.265 69.813Z" fill="#E46875"/>
</g>
<defs>
<clipPath id="clip0_42_2">
<rect width="411" height="823" fill="white"/>
</clipPath>
</defs>
</svg>
